<svg xmlns="http://www.w3.org/2000/svg" width="920" height="294" viewBox="0 0 920 294" role="img" aria-labelledby="title desc">
<title id="title">Public repository activity</title><desc id="desc">19 public repositories. 9 non-fork non-empty projects. Updated 2026-09-26 UTC.</desc>
<defs><linearGradient id="bg" x2="1" y2="1"><stop stop-color="#0c1522"/><stop offset="1" stop-color="#111225"/></linearGradient><pattern id="grid" width="28" height="28" patternUnits="userSpaceOnUse"><path d="M 28 0 L 0 0 0 28" fill="none" stroke="#26344c" stroke-opacity=".35"/></pattern></defs>
<style>text{font-family:'SFMono-Regular',Consolas,'Liberation Mono',monospace} .muted{fill:#9aaec5} .pulse{animation:pulse 3s ease-in-out infinite} .cursor{animation:blink 1.3s steps(2,end) infinite} .flow{stroke-dasharray:8 16;animation:flow 6s linear infinite} @keyframes blink{50%{opacity:0}} @keyframes pulse{50%{opacity:.35}} @keyframes flow{to{stroke-dashoffset:-144}} @media(prefers-reduced-motion:reduce){*{animation:none!important}}</style>
<rect x=".5" y=".5" width="919" height="293" rx="16" fill="url(#bg)" stroke="#2a3b50"/>
<text x="27" y="37" font-size="17" fill="#52f5a3" >$ github --public-only</text><text x="27" y="95" font-size="39" fill="#f1f7ff" font-weight="700">19</text><text x="27" y="123" font-size="13" fill="#9aaec5" >public repositories</text><text x="267" y="95" font-size="39" fill="#f1f7ff" font-weight="700">9</text><text x="267" y="123" font-size="13" fill="#9aaec5" >original projects</text><text x="516" y="95" font-size="39" fill="#f1f7ff" font-weight="700">5</text><text x="516" y="123" font-size="13" fill="#9aaec5" >primary languages</text><text x="888" y="93" font-size="12" fill="#52f5a3" text-anchor="end">UPDATED</text><text x="888" y="120" font-size="12" fill="#9aaec5" text-anchor="end">2026-09-26</text><path d="M27 148 H892" stroke="#2a3b50"/><rect x="27.00" y="174" width="324.38" height="12" fill="#52f5a3"/><rect x="351.38" y="174" width="216.25" height="12" fill="#68d8ff"/><rect x="567.62" y="174" width="108.12" height="12" fill="#c9a0ff"/><rect x="675.75" y="174" width="108.12" height="12" fill="#ffb86b"/><rect x="783.88" y="174" width="108.12" height="12" fill="#ff79b0"/><circle cx="32" cy="212" r="4" fill="#52f5a3"/><text x="45" y="216" font-size="12" fill="#c3d1e3" >HTML · 3 repos</text><circle cx="323" cy="212" r="4" fill="#68d8ff"/><text x="336" y="216" font-size="12" fill="#c3d1e3" >Python · 2 repos</text><circle cx="614" cy="212" r="4" fill="#c9a0ff"/><text x="627" y="216" font-size="12" fill="#c3d1e3" >JavaScript · 1 repos</text><circle cx="32" cy="236" r="4" fill="#ffb86b"/><text x="45" y="240" font-size="12" fill="#c3d1e3" >TypeScript · 1 repos</text><circle cx="323" cy="236" r="4" fill="#ff79b0"/><text x="336" y="240" font-size="12" fill="#c3d1e3" >CSS · 1 repos</text><text x="27" y="272" font-size="11" fill="#9aaec5" >Primary language per non-fork project · not a skill ranking</text></svg>
