<svg xmlns="http://www.w3.org/2000/svg" width="920" height="121" viewBox="0 0 920 121" role="img" aria-labelledby="title desc">
<title id="title">Tools in my public projects</title><desc id="desc">Python, PyTorch, TypeScript, Next.js, Docker, Git and CI.</desc>
<defs><linearGradient id="bg" x2="1" y2="1"><stop stop-color="#0c1522"/><stop offset="1" stop-color="#111225"/></linearGradient><pattern id="grid" width="28" height="28" patternUnits="userSpaceOnUse"><path d="M 28 0 L 0 0 0 28" fill="none" stroke="#26344c" stroke-opacity=".35"/></pattern></defs>
<style>text{font-family:'SFMono-Regular',Consolas,'Liberation Mono',monospace} .muted{fill:#9aaec5} .pulse{animation:pulse 3s ease-in-out infinite} .cursor{animation:blink 1.3s steps(2,end) infinite} .flow{stroke-dasharray:8 16;animation:flow 6s linear infinite} @keyframes blink{50%{opacity:0}} @keyframes pulse{50%{opacity:.35}} @keyframes flow{to{stroke-dashoffset:-144}} @media(prefers-reduced-motion:reduce){*{animation:none!important}}</style>
<rect x=".5" y=".5" width="919" height="120" rx="16" fill="url(#bg)" stroke="#2a3b50"/>
<text x="25" y="34" font-size="15" fill="#52f5a3" >$ cat toolbox.txt</text><rect x="25" y="55" width="135" height="43" rx="7" fill="#142235" stroke="#34465c"/><text x="92" y="82" font-size="15" fill="#52f5a3" text-anchor="middle">Python</text><rect x="173" y="55" width="135" height="43" rx="7" fill="#142235" stroke="#34465c"/><text x="240" y="82" font-size="15" fill="#68d8ff" text-anchor="middle">PyTorch</text><rect x="321" y="55" width="135" height="43" rx="7" fill="#142235" stroke="#34465c"/><text x="388" y="82" font-size="15" fill="#c9a0ff" text-anchor="middle">TypeScript</text><rect x="469" y="55" width="135" height="43" rx="7" fill="#142235" stroke="#34465c"/><text x="536" y="82" font-size="15" fill="#ffb86b" text-anchor="middle">Next.js</text><rect x="617" y="55" width="135" height="43" rx="7" fill="#142235" stroke="#34465c"/><text x="684" y="82" font-size="15" fill="#ff79b0" text-anchor="middle">Docker</text><rect x="765" y="55" width="135" height="43" rx="7" fill="#142235" stroke="#34465c"/><text x="832" y="82" font-size="15" fill="#8493a9" text-anchor="middle">Git / CI</text></svg>
